<?xml version="1.0" encoding="UTF-8" standalone="no"?>
<!-- Created with Inkscape (http://www.inkscape.org/) -->

<svg
   xmlns:dc="http://purl.org/dc/elements/1.1/"
   xmlns:cc="http://creativecommons.org/ns#"
   xmlns:rdf="http://www.w3.org/1999/02/22-rdf-syntax-ns#"
   xmlns:svg="http://www.w3.org/2000/svg"
   xmlns="http://www.w3.org/2000/svg"
   xmlns:sodipodi="http://sodipodi.sourceforge.net/DTD/sodipodi-0.dtd"
   xmlns:inkscape="http://www.inkscape.org/namespaces/inkscape"
   width="210mm"
   height="297mm"
   id="svg2"
   version="1.1"
   inkscape:version="0.48.4 r9939"
   sodipodi:docname="EtchingMask.svg">
  <defs
     id="defs4" />
  <sodipodi:namedview
     id="base"
     pagecolor="#ffffff"
     bordercolor="#666666"
     borderopacity="1.0"
     inkscape:pageopacity="0.0"
     inkscape:pageshadow="2"
     inkscape:zoom="3.959798"
     inkscape:cx="-155.03639"
     inkscape:cy="671.05959"
     inkscape:document-units="px"
     inkscape:current-layer="layer1"
     showgrid="false"
     inkscape:window-width="1920"
     inkscape:window-height="1138"
     inkscape:window-x="1592"
     inkscape:window-y="-8"
     inkscape:window-maximized="1" />
  <metadata
     id="metadata7">
    <rdf:RDF>
      <cc:Work
         rdf:about="">
        <dc:format>image/svg+xml</dc:format>
        <dc:type
           rdf:resource="http://purl.org/dc/dcmitype/StillImage" />
        <dc:title></dc:title>
      </cc:Work>
    </rdf:RDF>
  </metadata>
  <g
     inkscape:label="Ebene 1"
     inkscape:groupmode="layer"
     id="layer1">
    <rect
       style="fill:none;stroke:#000000;stroke-width:0.86125761;stroke-linecap:round;stroke-miterlimit:4;stroke-opacity:1;stroke-dasharray:none"
       id="rect3769"
       width="232.9959"
       height="1004.4244"
       x="301.35919"
       y="19.435667" />
    <path
       style="fill:none;stroke:#000000;stroke-width:1px;stroke-linecap:butt;stroke-linejoin:miter;stroke-opacity:1"
       d="m 301.25525,19.528562 c 0,0 225.98231,25.398613 233.12517,436.827188"
       id="path3773"
       inkscape:connector-curvature="0"
       sodipodi:nodetypes="cc" />
    <path
       style="fill:none;stroke:#000000;stroke-width:1;stroke-linecap:butt;stroke-linejoin:miter;stroke-miterlimit:4;stroke-opacity:1;stroke-dasharray:none;stroke-dashoffset:0;marker-mid:none;marker-end:none"
       d="m 301.02546,18.976129 c 0,0 139.40105,93.944191 151.52288,229.304631 12.12183,135.36044 -12.12183,355.90868 80.8122,534.70568"
       id="path3777"
       inkscape:connector-curvature="0"
       sodipodi:nodetypes="csc" />
    <path
       style="font-size:medium;font-style:normal;font-variant:normal;font-weight:normal;font-stretch:normal;text-indent:0;text-align:start;text-decoration:none;line-height:normal;letter-spacing:normal;word-spacing:normal;text-transform:none;direction:ltr;block-progression:tb;writing-mode:lr-tb;text-anchor:start;baseline-shift:baseline;color:#000000;fill:#000000;fill-opacity:1;stroke:none;stroke-width:3.9000001;marker:none;visibility:visible;display:inline;overflow:visible;enable-background:accumulate;font-family:Sans;-inkscape-font-specification:Sans"
       d="m 298.15625,20.3125 -2.25,3.1875 c 0,0 141.99967,100.57399 150.625,232.78125 4.9e-4,0.01 -4.9e-4,0.0213 0,0.0312 7.667,154.54434 -6.26693,377.70356 89.59375,546.09375 l 3.40625,-1.9375 C 444.47924,633.49908 458.12842,411.05534 450.4375,256.09375 l 0,-0.0312 C 441.66101,121.20454 298.15625,20.3125 298.15625,20.3125 z"
       id="path3777-1"
       inkscape:connector-curvature="0" />
    <path
       style="fill:none;stroke:#000000;stroke-width:0.74884993;stroke-linecap:round;stroke-miterlimit:4;stroke-opacity:1;stroke-dasharray:none;stroke-dashoffset:0"
       d="m 287.0827,19.725217 28.5974,0 0,168.739293 -14.2987,23.9632 -14.2987,-23.9632 z"
       id="rect4157"
       inkscape:connector-curvature="0"
       sodipodi:nodetypes="cccccc" />
    <path
       style="fill:none;stroke:#000000;stroke-width:1px;stroke-linecap:butt;stroke-linejoin:miter;stroke-opacity:1"
       d="M -71.450893,213.96933 C -50.47506,360.42118 -188.15788,390.37876 -204.32224,503.52924"
       id="path4172"
       inkscape:connector-curvature="0"
       sodipodi:nodetypes="cc" />
    <path
       style="fill:none;stroke:#000000;stroke-width:1px;stroke-linecap:butt;stroke-linejoin:miter;stroke-opacity:1"
       d="m -71.428571,213.79075 c -14.172591,115.71317 -186.459469,150.63396 -132.857139,290"
       id="path4174"
       inkscape:connector-curvature="0" />
    <path
       style="fill:none;stroke:#000000;stroke-width:0.35714287;stroke-linecap:round;stroke-miterlimit:4;stroke-opacity:1;stroke-dasharray:none;stroke-dashoffset:0"
       d="m -206.93424,492.97832 c -5.88299,-19.72675 -7.76502,-34.64938 -6.24275,-49.49875 2.10107,-20.49534 8.95249,-38.49091 22.13548,-58.13983 9.35583,-13.94463 18.2567,-24.19254 45.01779,-51.83065 34.70823,-35.8457 44.13606,-46.89606 55.522248,-65.07769 7.286857,-11.63576 14.448164,-28.29143 17.013621,-39.57005 0.714272,-3.14017 1.530057,-5.98113 1.812857,-6.31325 0.888543,-1.04348 1.595893,15.82442 1.163558,27.74671 -0.946186,26.09235 -7.342579,49.17628 -19.990286,72.14286 -10.639018,19.31904 -20.558458,32.53352 -49.060308,65.35714 -22.56094,25.98188 -31.23525,36.94101 -40.2188,50.81247 -11.79773,18.21683 -19.36071,35.6491 -23.31309,53.73546 -0.75601,3.45958 -1.50965,6.42523 -1.67476,6.59033 -0.16511,0.16511 -1.13961,-2.51452 -2.16556,-5.95475 l 0,0 z"
       id="path4182"
       inkscape:connector-curvature="0" />
    <path
       style="fill:none;stroke:#000000;stroke-width:0.35714287;stroke-linecap:round;stroke-miterlimit:4;stroke-opacity:1;stroke-dasharray:none;stroke-dashoffset:0"
       d="m -207.32754,489.16227 c -4.19885,-15.15976 -5.33489,-22.71202 -5.36305,-35.65317 -0.0204,-9.36639 0.29976,-13.432 1.5596,-19.80555 3.13516,-15.86078 9.80157,-31.56568 19.79052,-46.62303 9.72078,-14.6531 16.80612,-22.81483 49.8826,-57.46064 20.26194,-21.22327 31.49343,-33.64621 38.78245,-42.8965 13.444026,-17.06144 23.511812,-36.09884 28.804898,-54.46781 1.060071,-3.67884 1.913093,-5.55927 2.268171,-5 0.83045,1.30801 0.711579,23.1191 -0.178114,32.6821 -1.7192,18.47904 -6.546729,35.90451 -14.593707,52.67755 -10.821129,22.55542 -20.522888,36.03487 -54.624208,75.89387 -26.19795,30.62124 -32.82637,39.25284 -42.77244,55.6988 -8.92128,14.75144 -14.14429,26.92541 -18.67448,43.52708 l -2.61911,9.59822 -2.26313,-8.17092 z"
       id="path4184"
       inkscape:connector-curvature="0" />
    <path
       style="fill:none;stroke:#000000;stroke-width:0.35714287;stroke-linecap:round;stroke-miterlimit:4;stroke-opacity:1;stroke-dasharray:none;stroke-dashoffset:0"
       d="m -205.21422,494.86403 c -0.0456,-0.23693 -1.04052,-4.09407 -2.21099,-8.57143 -2.90958,-11.12994 -3.53059,-14.66607 -4.27343,-24.33364 -2.01581,-26.23439 4.9486,-50.43249 21.75431,-75.58615 8.99694,-13.46601 14.33119,-19.6126 48.97662,-56.43514 22.26527,-23.66443 31.25285,-33.57007 37.92677,-41.80095 11.242332,-13.86506 22.386982,-33.94358 28.161675,-50.7369 l 3.18005,-9.24787 -0.310671,16.78572 c -0.487293,26.32844 -3.951086,42.64866 -13.686865,64.48795 -9.670428,21.69269 -19.515419,35.6325 -54.339339,76.94062 -33.96094,40.28445 -40.92592,49.87538 -51.35308,70.71428 -5.13331,10.25903 -10.47935,24.94495 -13.39092,36.78572 -0.1932,0.78571 -0.38856,1.23472 -0.43413,0.99779 l 0,0 z"
       id="path4186"
       inkscape:connector-curvature="0" />
    <path
       style="fill:none;stroke:#000000;stroke-width:0.35714287;stroke-linecap:round;stroke-miterlimit:4;stroke-opacity:1;stroke-dasharray:none;stroke-dashoffset:0"
       d="m -205.89992,489.84132 c -2.07544,-6.49643 -4.3869,-19.07839 -5.04916,-27.48405 -2.06925,-26.26381 4.85058,-50.36623 21.74254,-75.73131 8.70157,-13.06634 13.16611,-18.20779 51.40732,-59.20165 21.40171,-22.94224 32.28241,-35.13686 37.76818,-42.329 8.957668,-11.74395 18.808061,-29.69679 24.777161,-45.15764 l 2.895593,-7.5 -0.39435,14.28571 c -0.704079,25.50573 -3.678565,39.49059 -12.989493,61.07143 -6.444386,14.93678 -15.066351,28.88401 -28.401061,45.94268 -2.9008,3.71089 -15.20735,18.75795 -27.34792,33.43791 -33.20548,40.15096 -37.78699,46.27911 -46.29961,61.92957 -6.02853,11.08348 -8.98465,18.01116 -13.57274,31.80778 -3.6642,11.01845 -3.78982,11.26568 -4.53646,8.92857 l 0,0 z"
       id="path4188"
       inkscape:connector-curvature="0" />
    <path
       style="fill:none;stroke:#000000;stroke-width:0.35714287;stroke-linecap:round;stroke-miterlimit:4;stroke-opacity:1;stroke-dasharray:none;stroke-dashoffset:0"
       d="m -205.60711,488.43276 c -0.84908,-2.45861 -2.54772,-10.00194 -3.28014,-14.56652 -6.36642,-39.67657 5.59319,-73.41405 39.37374,-111.07143 4.05274,-4.51786 13.19037,-14.48214 20.30584,-22.14286 22.03106,-23.71925 38.33331,-41.61832 43.63039,-47.90406 11.636644,-13.80852 20.052022,-27.81062 28.948986,-48.16737 l 3.433986,-7.85714 0.0094,5 c 0.01528,8.10276 -1.312415,25.11753 -2.489357,31.90094 -2.589043,14.92218 -10.414086,35.59385 -19.322658,51.04528 -7.794997,13.52 -14.736617,22.73604 -44.587587,59.19664 -28.46978,34.77358 -34.68391,42.6692 -41.01994,52.11949 -6.57603,9.80827 -16.0495,29.32087 -20.47191,42.16622 -2.0288,5.89286 -3.80088,10.84065 -3.93794,10.9951 -0.13706,0.15444 -0.40385,-0.16699 -0.59286,-0.71429 l 2e-5,0 z"
       id="path4190"
       inkscape:connector-curvature="0" />
    <path
       style="fill:none;stroke:#000000;stroke-width:0.35714287;stroke-linecap:round;stroke-miterlimit:4;stroke-opacity:1;stroke-dasharray:none;stroke-dashoffset:0"
       d="m -205.50722,486.59233 c -0.99658,-1.64566 -3.48445,-16.81901 -4.01896,-24.51136 -2.2054,-31.73905 8.45131,-60.4578 33.66165,-90.71473 4.09165,-4.91072 18.83068,-21.3104 32.75341,-36.44374 30.37408,-33.01518 36.59817,-39.97581 42.54213,-47.57647 6.486761,-8.29473 13.881732,-20.48486 19.443432,-32.05122 8.2499,-17.15687 7.354,-16.46058 6.892986,-5.35714 -0.907536,21.85774 -3.734279,35.07824 -11.607086,54.28571 -9.351986,22.81625 -15.200252,31.22081 -60.886412,87.5 -25.15965,30.99329 -31.65203,39.48179 -37.11545,48.52674 -5.17265,8.5636 -13.44477,26.11298 -17.5288,37.18755 -3.8007,10.30627 -3.64635,9.96471 -4.1369,9.15466 z"
       id="path4192"
       inkscape:connector-curvature="0" />
    <path
       style="fill:none;stroke:#000000;stroke-width:0.35714287;stroke-linecap:round;stroke-miterlimit:4;stroke-opacity:1;stroke-dasharray:none;stroke-dashoffset:0"
       d="m -205.63446,484.04481 c -2.02355,-6.17596 -3.44456,-22.02803 -3.04489,-33.96729 0.71367,-21.31935 6.44962,-38.8615 19.37034,-59.23996 8.14169,-12.84099 12.14773,-17.56094 52.59802,-61.97132 13.95521,-15.32143 28.15023,-31.13179 31.54449,-35.13413 8.592592,-10.13196 15.990628,-21.52641 23.897228,-36.80651 l 6.7575,-13.05936 -0.4259,7.85714 c -1.265836,23.35237 -5.566336,40.15093 -15.779464,61.63758 -7.925965,16.67483 -12.995704,23.69902 -55.269604,76.57671 -29.09043,36.38733 -31.91498,40.03809 -36.70682,47.44384 -5.24135,8.10046 -15.92161,30.59525 -20.45953,43.09187 -1.6812,4.62973 -1.98931,5.0732 -2.48137,3.57143 l 0,0 z"
       id="path4194"
       inkscape:connector-curvature="0" />
    <path
       style="fill:none;stroke:#000000;stroke-width:0.35714287;stroke-linecap:round;stroke-miterlimit:4;stroke-opacity:1;stroke-dasharray:none;stroke-dashoffset:0"
       d="m -205.90518,480.12164 c -2.56115,-11.94222 -2.78138,-33.35595 -0.47571,-46.2554 2.46035,-13.7649 8.97754,-29.26192 18.38131,-43.70835 7.87307,-12.09492 11.98963,-16.91082 59.10731,-69.1488 13.81966,-15.32142 27.11242,-30.49122 29.539484,-33.71065 6.016792,-7.98108 12.103614,-17.87497 18.590392,-30.21792 6.219458,-11.83429 6.145172,-11.9064 4.425436,4.29589 -1.675064,15.7814 -5.197221,29.21399 -11.577593,44.15394 -8.90945,20.86189 -13.610609,27.53423 -64.503949,91.55017 -13.89848,17.48215 -26.94632,34.35715 -28.9952,37.5 -6.75611,10.36351 -13.35081,23.67083 -20.68407,41.73801 l -3.0248,7.4523 -0.78261,-3.64919 0,0 z"
       id="path4196"
       inkscape:connector-curvature="0" />
    <path
       style="fill:none;stroke:#000000;stroke-width:0.35714287;stroke-linecap:round;stroke-miterlimit:4;stroke-opacity:1;stroke-dasharray:none;stroke-dashoffset:0"
       d="m -205.93685,476.17155 c -0.47176,-3.2322 -1.04745,-10.53745 -1.2793,-16.23388 -1.0611,-26.07044 4.79365,-46.14238 20.49499,-70.2634 6.89374,-10.59043 13.19293,-18.08965 43.57768,-51.87946 46.772158,-52.01367 47.657201,-53.12743 60.421201,-76.03589 3.788028,-6.79864 6.446164,-10.88276 6.591578,-10.12768 0.134029,0.69594 -0.285043,5.50138 -0.931264,10.67874 -2.780407,22.27594 -10.582764,45.02641 -21.472529,62.61063 -5.788956,9.3477 -19.152026,27.08796 -48.167826,63.94563 -28.37278,36.04085 -34.44942,44.0272 -38.04397,50 -4.20223,6.98252 -11.0789,21.07237 -15.86168,32.49952 l -4.47112,10.68254 -0.85776,-5.87675 0,0 z"
       id="path4198"
       inkscape:connector-curvature="0" />
    <path
       style="fill:none;stroke:#000000;stroke-width:0.08928572;stroke-linecap:round;stroke-miterlimit:4;stroke-opacity:1;stroke-dasharray:none;stroke-dashoffset:0"
       d="m -205.00919,480.46318 c -0.21411,-0.91588 -0.82518,-5.53947 -1.08562,-8.21429 -0.86275,-8.86071 -1.16463,-21.21916 -0.66085,-27.05357 1.32842,-15.38484 4.90026,-27.53234 12.245,-41.64413 3.51864,-6.76053 7.92878,-13.90369 12.21479,-19.78444 6.45944,-8.8629 12.95139,-16.36009 47.08421,-54.375 32.78029,-36.50854 38.997078,-44.06332 46.287862,-56.25 1.087014,-1.81697 3.520342,-6.03572 5.407396,-9.375 3.510518,-6.21213 5.367271,-9.31324 6.521961,-10.89286 l 0.652673,-0.89286 -0.116029,1.60715 c -1.417176,19.62995 -6.683478,39.79998 -15.071596,57.72448 -7.1559,15.29139 -13.015687,23.37364 -64.571097,89.06123 -19.41856,24.74151 -25.76846,33.17222 -28.84973,38.30357 -3.54806,5.90872 -9.31893,17.50065 -13.77938,27.67857 -1.32453,3.02236 -5.52324,12.90017 -6.03439,14.19643 -0.13178,0.33418 -0.14754,0.32845 -0.2452,-0.0893 l 0,0 z"
       id="path4200"
       inkscape:connector-curvature="0" />
    <path
       style="fill:none;stroke:#000000;stroke-width:0.08928572;stroke-linecap:round;stroke-miterlimit:4;stroke-opacity:1;stroke-dasharray:none;stroke-dashoffset:0"
       d="m -205.1025,478.98648 c -0.85841,-5.89927 -1.37503,-12.34057 -1.63605,-20.3983 -0.29026,-8.9604 0.007,-14.45681 1.18699,-21.95736 2.38532,-15.16057 8.10112,-29.26856 18.37908,-45.36407 6.88742,-10.78583 12.72879,-17.83409 40.18023,-48.4819 40.20182,-44.88279 46.89324,-52.6673 53.417803,-62.14387 2.582143,-3.75043 4.004065,-6.08493 9.29904,-15.26709 4.905719,-8.50714 6.316275,-10.87679 7.203885,-12.1021 0.647929,-0.89444 0.643493,-1.13755 0.08073,4.42353 -1.272389,12.57333 -3.864039,24.46851 -8.014648,36.78571 -2.299777,6.82474 -4.286141,11.69675 -7.571752,18.57143 -6.312084,13.20716 -13.699848,23.44941 -54.419658,75.44643 -31.46915,40.18441 -35.21906,45.15625 -38.94142,51.63068 -4.53304,7.88446 -9.72534,18.70091 -15.69539,32.6962 l -3.25498,7.63044 -0.21386,-1.46973 0,0 z"
       id="path4202"
       inkscape:connector-curvature="0" />
    <path
       style="fill:none;stroke:#000000;stroke-width:0.12626907;stroke-linecap:round;stroke-miterlimit:4;stroke-opacity:1;stroke-dasharray:none;stroke-dashoffset:0"
       d="m -205.31365,475.83193 c -1.07607,-9.11203 -1.57637,-21.05446 -1.17894,-28.14225 1.02835,-18.33979 6.21266,-34.30069 16.91675,-52.08144 8.44587,-14.02956 11.63252,-17.87021 56.70408,-68.34137 5.70567,-6.38921 13.61332,-15.31012 17.57256,-19.82424 18.539905,-21.13824 20.722918,-24.0592 30.481105,-40.78491 7.636584,-13.08924 7.74214,-13.2561 7.841902,-12.39638 0.126078,1.08647 -0.66994,8.07025 -1.49052,13.07693 -2.735799,16.69216 -7.808297,32.57408 -14.992992,46.94284 -6.774765,13.54893 -12.397005,21.21047 -64.939755,88.49467 -16.05135,20.55474 -22.27669,28.78466 -25.50205,33.71384 -4.2996,6.57088 -10.07999,18.23476 -17.27111,34.85026 -1.83346,4.23633 -3.41938,7.79192 -3.52425,7.90131 -0.10487,0.10939 -0.38242,-1.42478 -0.61678,-3.40926 l 0,0 z"
       id="path4204"
       inkscape:connector-curvature="0" />
    <path
       style="fill:none;stroke:#000000;stroke-width:0.12626907;stroke-linecap:round;stroke-miterlimit:4;stroke-opacity:1;stroke-dasharray:none;stroke-dashoffset:0"
       d="m -204.79664,477.87447 c -0.2321,-0.92661 -0.88448,-7.46382 -1.20655,-12.09043 -0.3945,-5.66704 -0.40027,-18.09306 -0.0101,-21.84455 1.7705,-17.02512 6.40378,-30.72333 15.84513,-46.84582 7.89858,-13.48799 12.12008,-18.72531 43.66281,-54.16943 34.42633,-38.68438 42.68808,-48.1522 48.260607,-55.30585 4.675701,-6.00236 7.555709,-10.53204 18.265233,-28.72759 1.288028,-2.18837 2.459787,-4.05173 2.60391,-4.1408 0.354374,-0.21902 0.08528,2.77459 -0.825666,9.18526 -3.345062,23.54048 -11.649771,46.24198 -23.294414,63.6769 -6.47633,9.69667 -13.17988,18.57513 -42.73659,56.60206 -28.93044,37.2212 -34.4695,44.42725 -37.80429,49.18161 -5.01741,7.15324 -9.80958,16.4543 -18.18364,35.2924 -4.76128,10.71085 -4.38413,9.9538 -4.5764,9.18624 z"
       id="path4206"
       inkscape:connector-curvature="0" />
    <path
       style="fill:none;stroke:#000000;stroke-width:0.12626907;stroke-linecap:round;stroke-miterlimit:4;stroke-opacity:1;stroke-dasharray:none;stroke-dashoffset:0"
       d="m -204.81335,476.24226 c -0.92289,-7.85239 -1.18852,-12.72223 -1.1906,-21.82755 -0.002,-10.96785 0.5836,-16.32874 2.79765,-25.58908 4.04376,-16.91324 13.76903,-35.31613 27.50262,-52.04251 5.85524,-7.1312 8.53631,-10.18757 53.18327,-60.62792 26.069815,-29.45263 26.987867,-30.65408 39.462104,-51.64405 4.948371,-8.32646 5.615155,-9.34981 5.618087,-8.62243 0.0043,1.07787 -1.015589,8.41553 -1.789917,12.8771 -3.042034,17.52782 -8.671745,34.16936 -16.45864,48.65207 -6.238234,11.60238 -10.249964,17.05597 -54.987944,74.75129 -25.28603,32.60954 -30.00032,38.79492 -32.81479,43.05458 -4.25231,6.43578 -9.12402,16.06069 -16.93829,33.46447 -2.12038,4.72246 -3.93604,8.67787 -4.03481,8.78978 -0.0988,0.11192 -0.2557,-0.44417 -0.34874,-1.23575 z"
       id="path4208"
       inkscape:connector-curvature="0" />
    <path
       style="fill:none;stroke:#000000;stroke-width:0.12626907;stroke-linecap:round;stroke-miterlimit:4;stroke-opacity:1;stroke-dasharray:none;stroke-dashoffset:0"
       d="m -204.55401,476.39064 c -0.17031,-0.52249 -0.62857,-5.22241 -0.92337,-9.47018 -0.32509,-4.68409 -0.31749,-18.91003 0.0123,-23.00743 1.51369,-18.80686 9.22443,-38.31535 22.69765,-57.42596 5.79275,-8.21652 9.64005,-12.74046 41.44995,-48.73986 35.78176,-40.49437 38.8283,-44.00843 43.760864,-50.47631 3.737521,-4.90088 6.838023,-9.65216 13.533751,-20.73945 3.229409,-5.34749 5.984694,-9.83636 6.12286,-9.97525 0.283343,-0.28485 0.245384,0.0734 -0.709205,6.69226 -2.628756,18.2272 -7.393506,33.91751 -14.992793,49.3712 -7.057967,14.3529 -8.293727,16.07354 -54.320797,75.63517 -25.17447,32.5772 -31.90399,41.36734 -34.60735,45.20433 -3.8993,5.53444 -9.93186,17.18043 -17.39817,33.58757 -4.739,10.41388 -4.46037,9.85106 -4.62568,9.34391 z"
       id="path4210"
       inkscape:connector-curvature="0" />
    <path
       style="fill:none;stroke:#000000;stroke-width:0.12626907;stroke-linecap:round;stroke-miterlimit:4;stroke-opacity:1;stroke-dasharray:none;stroke-dashoffset:0"
       d="m -204.55582,474.87542 c -0.56942,-4.54743 -0.70376,-7.20891 -0.83526,-16.54807 -0.16156,-11.4749 0.0523,-15.81061 1.08022,-21.90144 2.58728,-15.33036 9.07683,-30.82637 19.3803,-46.27704 6.84945,-10.27116 8.40726,-12.11778 51.68223,-61.26377 27.55956,-31.29851 30.06873,-34.18642 33.989599,-39.12014 4.656952,-5.85994 7.740658,-10.50816 16.532796,-24.92069 2.557269,-4.19201 4.672965,-7.59844 4.70155,-7.56986 0.02859,0.0286 -0.219034,1.94462 -0.550265,4.25785 -2.001256,13.97625 -4.83128,25.43494 -9.081681,36.77145 -2.359842,6.29408 -6.328803,15.00391 -9.285481,20.37687 -5.435948,9.87834 -9.394488,15.25547 -50.475678,68.5641 -29.74807,38.60233 -34.06493,44.27852 -36.45082,47.92879 -4.01451,6.14199 -10.87115,19.83278 -19.88357,39.70195 l -0.63001,1.38896 -0.17393,-1.38896 z"
       id="path4212"
       inkscape:connector-curvature="0" />
    <path
       style="fill:none;stroke:#000000;stroke-width:0.12626907;stroke-linecap:round;stroke-miterlimit:4;stroke-opacity:1;stroke-dasharray:none;stroke-dashoffset:0"
       d="m -204.54532,473.67586 c -0.77526,-7.85242 -0.81407,-28.53288 -0.0636,-33.90325 2.23025,-15.96018 8.26376,-31.35944 18.65037,-47.60111 7.12941,-11.14836 6.747,-10.69724 71.38691,-84.21429 16.332529,-18.57551 19.080424,-22.13233 27.224297,-35.23857 1.812433,-2.91682 4.566869,-7.34886 6.120971,-9.84899 l 2.825639,-4.54569 -0.16623,1.51523 c -0.09142,0.83338 -0.502448,3.56079 -0.913383,6.06092 -2.809411,17.09239 -6.670901,29.7136 -13.67869,44.70854 -3.466068,7.41653 -6.758282,13.11793 -11.512754,19.93759 -2.88156,4.13321 -16.72884,22.50893 -28.07254,37.25301 -37.03177,48.13241 -48.0447,62.53913 -50.28894,65.78618 -3.78503,5.47631 -10.40682,18.348 -18.41558,35.79694 -1.45025,3.15969 -2.70797,5.74505 -2.79495,5.74524 -0.087,1.9e-4 -0.22264,-0.6531 -0.30149,-1.45175 z"
       id="path4214"
       inkscape:connector-curvature="0" />
    <path
       style="fill:none;stroke:#000000;stroke-width:0.12626907;stroke-linecap:round;stroke-miterlimit:4;stroke-opacity:1;stroke-dasharray:none;stroke-dashoffset:0"
       d="m -204.30207,473.86526 c -0.56023,-2.347 -0.84025,-22.71794 -0.40962,-29.79899 1.03276,-16.98208 8.46269,-36.25019 21.42115,-55.55172 4.84086,-7.21041 11.93797,-15.57179 50.16484,-59.1011 36.43856,-41.49295 36.08312,-41.06025 44.08221,-53.66435 2.027429,-3.19461 5.146722,-8.16586 6.931763,-11.04722 1.785038,-2.88135 3.280485,-5.20387 3.323215,-5.16114 0.141853,0.14186 -1.419732,9.57349 -2.328195,14.06178 -2.934523,14.49811 -7.087478,26.48789 -13.908166,40.15356 -3.005474,6.02166 -5.561717,10.40406 -8.838317,15.15229 -4.67364,6.77277 -18.05949,24.45384 -49.6137,65.53365 -23.45287,30.53284 -28.51852,37.22318 -30.59379,40.4061 -3.00347,4.60651 -8.56308,15.26545 -14.02838,26.89531 -5.80157,12.34542 -6.03892,12.80925 -6.20301,12.12183 z"
       id="path4216"
       inkscape:connector-curvature="0" />
    <path
       style="fill:none;stroke:#000000;stroke-width:0.12626907;stroke-linecap:round;stroke-miterlimit:4;stroke-opacity:1;stroke-dasharray:none;stroke-dashoffset:0"
       d="m -204.36681,471.42899 c -0.34859,-3.8106 -0.26874,-27.63112 0.10273,-30.64622 1.96169,-15.92248 8.42023,-32.33317 19.48614,-49.51283 5.67176,-8.80534 10.36667,-14.39887 51.28308,-61.09888 19.9487,-22.76847 31.0023,-35.54263 34.819106,-40.23891 3.033354,-3.7323 6.723835,-9.16397 13.030445,-19.17827 3.472399,-5.51385 6.349927,-9.91703 6.394505,-9.78484 0.100344,0.29756 -1.282891,8.61897 -2.14199,12.88602 -3.365634,16.71672 -9.880459,33.76348 -18.482324,48.36105 -4.232822,7.1832 -7.345862,11.36564 -49.153432,66.03872 -27.94952,36.55048 -31.33481,41.00492 -33.95394,44.67725 -3.62858,5.08773 -8.70835,14.82199 -18.59325,35.62988 -0.95676,2.01399 -1.93014,3.98601 -2.16306,4.38226 l -0.4235,0.72046 -0.20451,-2.23569 z"
       id="path4218"
       inkscape:connector-curvature="0" />
    <path
       style="fill:none;stroke:#000000;stroke-width:0.12626907;stroke-linecap:round;stroke-miterlimit:4;stroke-opacity:1;stroke-dasharray:none;stroke-dashoffset:0"
       d="m -204.04749,472.41186 c -0.31812,-0.51475 -0.46299,-18.29708 -0.20726,-25.44191 0.2754,-7.69422 0.61109,-10.24245 2.21237,-16.79378 3.94015,-16.12043 13.34088,-34.5946 25.03763,-49.20355 3.70351,-4.62559 16.87046,-20.00975 28.34999,-33.12389 30.21085,-34.51267 47.68241,-54.69719 51.041957,-58.96765 2.361693,-3.00205 4.692312,-6.44765 11.316706,-16.73065 3.512007,-5.45167 6.445101,-9.91213 6.517986,-9.91213 0.307112,0 -1.222716,8.97344 -2.49712,14.64722 -3.333963,14.84316 -9.167126,29.99959 -16.566499,43.04509 -4.74293,8.36204 -6.92951,11.3207 -51.38942,69.53511 -28.16955,36.88432 -32.30516,42.36659 -34.40357,45.60625 -2.27185,3.50743 -5.84622,10.25378 -10.78613,20.35801 -2.61437,5.34749 -5.5861,11.41877 -6.60385,13.49172 -1.01775,2.07294 -1.928,3.64352 -2.02279,3.49016 z"
       id="path4220"
       inkscape:connector-curvature="0" />
    <path
       style="fill:none;stroke:#000000;stroke-width:0.12626907;stroke-linecap:round;stroke-miterlimit:4;stroke-opacity:1;stroke-dasharray:none;stroke-dashoffset:0"
       d="m -204.04548,468.80107 c -0.24544,-4.56468 -0.19609,-18.07863 0.0864,-23.67227 0.30464,-6.03146 0.74235,-9.11159 2.05307,-14.44756 3.28893,-13.38921 10.19331,-28.35604 19.10583,-41.41625 5.33512,-7.81798 11.01553,-14.54042 52.70792,-62.37692 16.69728,-19.15792 25.81843,-29.70505 30.473585,-35.23776 3.056474,-3.63266 5.692055,-7.39948 12.836894,-18.34672 3.680744,-5.63959 6.726313,-10.2224 6.767934,-10.18402 0.210374,0.194 -2.175154,12.60087 -3.237726,16.83906 -4.242062,16.91997 -11.600046,34.10511 -19.931107,46.55063 -4.20181,6.27696 -11.53582,16.03453 -48.02278,63.89215 -26.28564,34.47719 -30.83288,40.4992 -32.98977,43.6891 -2.4836,3.67307 -4.79852,8.01803 -12.10936,22.72843 -3.79661,7.63928 -7.05401,14.15709 -7.23868,14.48402 -0.29854,0.52853 -0.35423,0.25113 -0.50226,-2.50189 l 0,0 z"
       id="path4222"
       inkscape:connector-curvature="0" />
  </g>
</svg>
